<svg
	xmlns="http://www.w3.org/2000/svg"
	xmlns:xlink="http://www.w3.org/1999/xlink"
	viewBox="0 0 64 64"
	preserveAspectRatio="xMidYMid"
	fill="transparent"
	stroke="grey"
	stroke-width="3">
	<title>P45 Logo</title>
	<mask id="p44-p45-mask">
		<circle cx="32" cy="24" r="24" fill="white"></circle>
	</mask>
	<polygon
		points="0,0 64,0 64,64 0,64"
		fill="#050A23"
		stroke-width="0">
	</polygon>
	<g fill="crimson" stroke-width="0">
		<path
			d="M 4 4 C 6 10, 16 12, 25 12 C 23 14, 22 16, 20 24 C 16 22, 0 16, 4 4">
		</path>
		<g transform="translate(32, 32) scale(-1, 1) translate(-32, -32)">
			<path
				d="M 4 4 C 6 10, 16 12, 25 12 C 23 14, 22 16, 20 24 C 16 22, 0 16, 4 4">			
			</path>
		</g>
	</g>
	<g
		fill="white"
		mask="url(#p44-p45-mask)"
		stroke-width="0">
		<path
			d="M 4 4 C 6 10, 16 12, 25 12 C 23 14, 22 16, 20 24 C 16 22, 0 16, 4 4">
		</path>
		<g
			transform="translate(32, 32) scale(-1, 1) translate(-32, -32)"><path
				d="M 4 4 C 6 10, 16 12, 25 12 C 23 14, 22 16, 20 24 C 16 22, 0 16, 4 4">
			</path>
		</g>
	</g>
	<g
		transform="translate(20, 0)"
		stroke-linecap="butt"
		stroke-width="1"
		stroke="#5a5a5a">
		<path
			d="M 0 28 C 0 24, 24 24, 24 28 C 24 0, 0 0, 0 28"
			fill="grey">
		</path>
		<path	d="M 0 24 C 0 20, 24 20, 24 24" stroke-width="1">
		</path>
		<path d="M 10 21 L 10 7 M 14 21 L 14 7">
		</path>
		<g fill="#5a5a5a" stroke-width="0">
			<circle cx="12" cy="10" r="1"></circle>
			<circle cx="12" cy="17" r="1"></circle>
			<circle cx="4" cy="23.75" r="1"></circle>
			<circle cx="12" cy="23" r="1"></circle>
			<circle cx="20" cy="23.75" r="1"></circle>
		</g>
	</g>
	<g
		stroke-linecap="round"
		stroke-width="3"
		stroke="#DAA520">
		<path
			d="M 16 26 C 13 20, 13 8, 16 0 C 8 4, 2 12, 0 22 C 6 19, 12 16, 20 18"
			transform="translate(6, 34)">
		</path>
		<path
			d="M 18 0 C 16 4, 4 4, 0 0 C 2 4, 2 8, 0 12 C 24 4, 24 32, -2 24"
			transform="translate(40, 34)">
		</path>
	</g>
</svg>
