<svg xmlns="http://www.w3.org/2000/svg" xmlns:xlink="http://www.w3.org/1999/xlink" viewBox="0 0 32 32" preserveAspectRatio="xMidYMid" fill="transparent"><g transform="scale(0.85, 0.90) translate(1.5, 2.5)" font-size="1px">
<g stroke-width="0.1" stroke="grey">
	<line x1="0" y1="0" x2="0" y2="32"></line> <line x1="0" y1="0" x2="32" y2="0"></line><line x1="4" y1="0" x2="4" y2="32"></line> <line x1="0" y1="4" x2="32" y2="4"></line><line x1="8" y1="0" x2="8" y2="32"></line> <line x1="0" y1="8" x2="32" y2="8"></line><line x1="12" y1="0" x2="12" y2="32"></line> <line x1="0" y1="12" x2="32" y2="12"></line><line x1="16" y1="0" x2="16" y2="32"></line> <line x1="0" y1="16" x2="32" y2="16"></line><line x1="20" y1="0" x2="20" y2="32"></line> <line x1="0" y1="20" x2="32" y2="20"></line><line x1="24" y1="0" x2="24" y2="32"></line> <line x1="0" y1="24" x2="32" y2="24"></line><line x1="28" y1="0" x2="28" y2="32"></line> <line x1="0" y1="28" x2="32" y2="28"></line><line x1="32" y1="0" x2="32" y2="32"></line> <line x1="0" y1="32" x2="32" y2="32"></line>
</g>
<g stroke-width="0" fill="grey">
	<circle cx="0" cy="0" r="0.6" fill="FireBrick"></circle> <text x="0.25" y="-0.75">(0,0)
				</text><circle cx="0" cy="4" r="0.6" fill="FireBrick"></circle> <text x="0.25" y="3.25">(0,1)
				</text><circle cx="0" cy="8" r="0.6" fill="FireBrick"></circle> <text x="0.25" y="7.25">(0,2)
				</text><circle cx="0" cy="12" r="0.6" fill="FireBrick"></circle> <text x="0.25" y="11.25">(0,3)
				</text><circle cx="0" cy="16" r="0.6" fill="FireBrick"></circle> <text x="0.25" y="15.25">(0,4)
				</text><circle cx="0" cy="20" r="0.6" fill="FireBrick"></circle> <text x="0.25" y="19.25">(0,5)
				</text><circle cx="0" cy="24" r="0.6" fill="FireBrick"></circle> <text x="0.25" y="23.25">(0,6)
				</text><circle cx="0" cy="28" r="0.6" fill="FireBrick"></circle> <text x="0.25" y="27.25">(0,7)
				</text><circle cx="0" cy="32" r="0.6" fill="FireBrick"></circle> <text x="0.25" y="31.25">(0,8)
				</text><circle cx="4" cy="0" r="0.6" fill="FireBrick"></circle> <text x="4.25" y="-0.75">(1,0)
				</text><circle cx="4" cy="4" r="0.4"></circle> <text x="4.25" y="3.25">(1,1)
				</text><circle cx="4" cy="8" r="0.4"></circle> <text x="4.25" y="7.25">(1,2)
				</text><circle cx="4" cy="12" r="0.4"></circle> <text x="4.25" y="11.25">(1,3)
				</text><circle cx="4" cy="16" r="0.4"></circle> <text x="4.25" y="15.25">(1,4)
				</text><circle cx="4" cy="20" r="0.4"></circle> <text x="4.25" y="19.25">(1,5)
				</text><circle cx="4" cy="24" r="0.4"></circle> <text x="4.25" y="23.25">(1,6)
				</text><circle cx="4" cy="28" r="0.4"></circle> <text x="4.25" y="27.25">(1,7)
				</text><circle cx="4" cy="32" r="0.6" fill="FireBrick"></circle> <text x="4.25" y="31.25">(1,8)
				</text><circle cx="8" cy="0" r="0.6" fill="FireBrick"></circle> <text x="8.25" y="-0.75">(2,0)
				</text><circle cx="8" cy="4" r="0.4"></circle> <text x="8.25" y="3.25">(2,1)
				</text><circle cx="8" cy="8" r="0.4"></circle> <text x="8.25" y="7.25">(2,2)
				</text><circle cx="8" cy="12" r="0.4"></circle> <text x="8.25" y="11.25">(2,3)
				</text><circle cx="8" cy="16" r="0.4"></circle> <text x="8.25" y="15.25">(2,4)
				</text><circle cx="8" cy="20" r="0.4"></circle> <text x="8.25" y="19.25">(2,5)
				</text><circle cx="8" cy="24" r="0.4"></circle> <text x="8.25" y="23.25">(2,6)
				</text><circle cx="8" cy="28" r="0.4"></circle> <text x="8.25" y="27.25">(2,7)
				</text><circle cx="8" cy="32" r="0.6" fill="FireBrick"></circle> <text x="8.25" y="31.25">(2,8)
				</text><circle cx="12" cy="0" r="0.6" fill="FireBrick"></circle> <text x="12.25" y="-0.75">(3,0)
				</text><circle cx="12" cy="4" r="0.4"></circle> <text x="12.25" y="3.25">(3,1)
				</text><circle cx="12" cy="8" r="0.4"></circle> <text x="12.25" y="7.25">(3,2)
				</text><circle cx="12" cy="12" r="0.4"></circle> <text x="12.25" y="11.25">(3,3)
				</text><circle cx="12" cy="16" r="0.4"></circle> <text x="12.25" y="15.25">(3,4)
				</text><circle cx="12" cy="20" r="0.4"></circle> <text x="12.25" y="19.25">(3,5)
				</text><circle cx="12" cy="24" r="0.4"></circle> <text x="12.25" y="23.25">(3,6)
				</text><circle cx="12" cy="28" r="0.4"></circle> <text x="12.25" y="27.25">(3,7)
				</text><circle cx="12" cy="32" r="0.6" fill="FireBrick"></circle> <text x="12.25" y="31.25">(3,8)
				</text><circle cx="16" cy="0" r="0.6" fill="FireBrick"></circle> <text x="16.25" y="-0.75">(4,0)
				</text><circle cx="16" cy="4" r="0.4"></circle> <text x="16.25" y="3.25">(4,1)
				</text><circle cx="16" cy="8" r="0.4"></circle> <text x="16.25" y="7.25">(4,2)
				</text><circle cx="16" cy="12" r="0.4"></circle> <text x="16.25" y="11.25">(4,3)
				</text><circle cx="16" cy="16" r="0.6" fill="DodgerBlue"></circle> <text x="16.25" y="15.25">(4,4)
				</text><circle cx="16" cy="20" r="0.4"></circle> <text x="16.25" y="19.25">(4,5)
				</text><circle cx="16" cy="24" r="0.4"></circle> <text x="16.25" y="23.25">(4,6)
				</text><circle cx="16" cy="28" r="0.4"></circle> <text x="16.25" y="27.25">(4,7)
				</text><circle cx="16" cy="32" r="0.6" fill="FireBrick"></circle> <text x="16.25" y="31.25">(4,8)
				</text><circle cx="20" cy="0" r="0.6" fill="FireBrick"></circle> <text x="20.25" y="-0.75">(5,0)
				</text><circle cx="20" cy="4" r="0.4"></circle> <text x="20.25" y="3.25">(5,1)
				</text><circle cx="20" cy="8" r="0.4"></circle> <text x="20.25" y="7.25">(5,2)
				</text><circle cx="20" cy="12" r="0.4"></circle> <text x="20.25" y="11.25">(5,3)
				</text><circle cx="20" cy="16" r="0.4"></circle> <text x="20.25" y="15.25">(5,4)
				</text><circle cx="20" cy="20" r="0.4"></circle> <text x="20.25" y="19.25">(5,5)
				</text><circle cx="20" cy="24" r="0.4"></circle> <text x="20.25" y="23.25">(5,6)
				</text><circle cx="20" cy="28" r="0.4"></circle> <text x="20.25" y="27.25">(5,7)
				</text><circle cx="20" cy="32" r="0.6" fill="FireBrick"></circle> <text x="20.25" y="31.25">(5,8)
				</text><circle cx="24" cy="0" r="0.6" fill="FireBrick"></circle> <text x="24.25" y="-0.75">(6,0)
				</text><circle cx="24" cy="4" r="0.4"></circle> <text x="24.25" y="3.25">(6,1)
				</text><circle cx="24" cy="8" r="0.4"></circle> <text x="24.25" y="7.25">(6,2)
				</text><circle cx="24" cy="12" r="0.4"></circle> <text x="24.25" y="11.25">(6,3)
				</text><circle cx="24" cy="16" r="0.4"></circle> <text x="24.25" y="15.25">(6,4)
				</text><circle cx="24" cy="20" r="0.4"></circle> <text x="24.25" y="19.25">(6,5)
				</text><circle cx="24" cy="24" r="0.4"></circle> <text x="24.25" y="23.25">(6,6)
				</text><circle cx="24" cy="28" r="0.4"></circle> <text x="24.25" y="27.25">(6,7)
				</text><circle cx="24" cy="32" r="0.6" fill="FireBrick"></circle> <text x="24.25" y="31.25">(6,8)
				</text><circle cx="28" cy="0" r="0.6" fill="FireBrick"></circle> <text x="28.25" y="-0.75">(7,0)
				</text><circle cx="28" cy="4" r="0.4"></circle> <text x="28.25" y="3.25">(7,1)
				</text><circle cx="28" cy="8" r="0.4"></circle> <text x="28.25" y="7.25">(7,2)
				</text><circle cx="28" cy="12" r="0.4"></circle> <text x="28.25" y="11.25">(7,3)
				</text><circle cx="28" cy="16" r="0.4"></circle> <text x="28.25" y="15.25">(7,4)
				</text><circle cx="28" cy="20" r="0.4"></circle> <text x="28.25" y="19.25">(7,5)
				</text><circle cx="28" cy="24" r="0.4"></circle> <text x="28.25" y="23.25">(7,6)
				</text><circle cx="28" cy="28" r="0.4"></circle> <text x="28.25" y="27.25">(7,7)
				</text><circle cx="28" cy="32" r="0.6" fill="FireBrick"></circle> <text x="28.25" y="31.25">(7,8)
				</text><circle cx="32" cy="0" r="0.6" fill="FireBrick"></circle> <text x="32.25" y="-0.75">(8,0)
				</text><circle cx="32" cy="4" r="0.6" fill="FireBrick"></circle> <text x="32.25" y="3.25">(8,1)
				</text><circle cx="32" cy="8" r="0.6" fill="FireBrick"></circle> <text x="32.25" y="7.25">(8,2)
				</text><circle cx="32" cy="12" r="0.6" fill="FireBrick"></circle> <text x="32.25" y="11.25">(8,3)
				</text><circle cx="32" cy="16" r="0.6" fill="FireBrick"></circle> <text x="32.25" y="15.25">(8,4)
				</text><circle cx="32" cy="20" r="0.6" fill="FireBrick"></circle> <text x="32.25" y="19.25">(8,5)
				</text><circle cx="32" cy="24" r="0.6" fill="FireBrick"></circle> <text x="32.25" y="23.25">(8,6)
				</text><circle cx="32" cy="28" r="0.6" fill="FireBrick"></circle> <text x="32.25" y="27.25">(8,7)
				</text><circle cx="32" cy="32" r="0.6" fill="FireBrick"></circle> <text x="32.25" y="31.25">(8,8)
				</text>
			</g>
		</g></svg>
