<svg xmlns="http://www.w3.org/2000/svg" xmlns:xlink="http://www.w3.org/1999/xlink" viewBox="0 0 32 32" preserveAspectRatio="xMidYMid" fill="transparent" stroke="grey" stroke-width="3"><g font-size="1px" stroke-width="1" fill="grey"><line vector-effect="non-scaling-stroke" x1="0" y1="0" x2="0" y2="32"></line> <line vector-effect="non-scaling-stroke" x1="0" y1="0" x2="32" y2="0"></line><line vector-effect="non-scaling-stroke" x1="4" y1="0" x2="4" y2="32"></line> <line vector-effect="non-scaling-stroke" x1="0" y1="4" x2="32" y2="4"></line><line vector-effect="non-scaling-stroke" x1="8" y1="0" x2="8" y2="32"></line> <line vector-effect="non-scaling-stroke" x1="0" y1="8" x2="32" y2="8"></line><line vector-effect="non-scaling-stroke" x1="12" y1="0" x2="12" y2="32"></line> <line vector-effect="non-scaling-stroke" x1="0" y1="12" x2="32" y2="12"></line><line vector-effect="non-scaling-stroke" x1="16" y1="0" x2="16" y2="32"></line> <line vector-effect="non-scaling-stroke" x1="0" y1="16" x2="32" y2="16"></line><line vector-effect="non-scaling-stroke" x1="20" y1="0" x2="20" y2="32"></line> <line vector-effect="non-scaling-stroke" x1="0" y1="20" x2="32" y2="20"></line><line vector-effect="non-scaling-stroke" x1="24" y1="0" x2="24" y2="32"></line> <line vector-effect="non-scaling-stroke" x1="0" y1="24" x2="32" y2="24"></line><line vector-effect="non-scaling-stroke" x1="28" y1="0" x2="28" y2="32"></line> <line vector-effect="non-scaling-stroke" x1="0" y1="28" x2="32" y2="28"></line><line vector-effect="non-scaling-stroke" x1="32" y1="0" x2="32" y2="32"></line> <line vector-effect="non-scaling-stroke" x1="0" y1="32" x2="32" y2="32"></line><circle vector-effect="non-scaling-stroke" cx="0" cy="0" r="0.8"></circle> <text vector-effect="non-scaling-stroke" x="0.5" y="-1">(0,0)
				</text><circle vector-effect="non-scaling-stroke" cx="0" cy="4" r="0.8"></circle> <text vector-effect="non-scaling-stroke" x="0.5" y="3">(0,1)
				</text><circle vector-effect="non-scaling-stroke" cx="0" cy="8" r="0.8"></circle> <text vector-effect="non-scaling-stroke" x="0.5" y="7">(0,2)
				</text><circle vector-effect="non-scaling-stroke" cx="0" cy="12" r="0.8"></circle> <text vector-effect="non-scaling-stroke" x="0.5" y="11">(0,3)
				</text><circle vector-effect="non-scaling-stroke" cx="0" cy="16" r="0.8"></circle> <text vector-effect="non-scaling-stroke" x="0.5" y="15">(0,4)
				</text><circle vector-effect="non-scaling-stroke" cx="0" cy="20" r="0.8"></circle> <text vector-effect="non-scaling-stroke" x="0.5" y="19">(0,5)
				</text><circle vector-effect="non-scaling-stroke" cx="0" cy="24" r="0.8"></circle> <text vector-effect="non-scaling-stroke" x="0.5" y="23">(0,6)
				</text><circle vector-effect="non-scaling-stroke" cx="0" cy="28" r="0.8"></circle> <text vector-effect="non-scaling-stroke" x="0.5" y="27">(0,7)
				</text><circle vector-effect="non-scaling-stroke" cx="0" cy="32" r="0.8"></circle> <text vector-effect="non-scaling-stroke" x="0.5" y="31">(0,8)
				</text><circle vector-effect="non-scaling-stroke" cx="4" cy="0" r="0.8"></circle> <text vector-effect="non-scaling-stroke" x="4.5" y="-1">(1,0)
				</text><circle vector-effect="non-scaling-stroke" cx="4" cy="4" r="0.4"></circle> <text vector-effect="non-scaling-stroke" x="4.5" y="3">(1,1)
				</text><circle vector-effect="non-scaling-stroke" cx="4" cy="8" r="0.4"></circle> <text vector-effect="non-scaling-stroke" x="4.5" y="7">(1,2)
				</text><circle vector-effect="non-scaling-stroke" cx="4" cy="12" r="0.4"></circle> <text vector-effect="non-scaling-stroke" x="4.5" y="11">(1,3)
				</text><circle vector-effect="non-scaling-stroke" cx="4" cy="16" r="0.4"></circle> <text vector-effect="non-scaling-stroke" x="4.5" y="15">(1,4)
				</text><circle vector-effect="non-scaling-stroke" cx="4" cy="20" r="0.4"></circle> <text vector-effect="non-scaling-stroke" x="4.5" y="19">(1,5)
				</text><circle vector-effect="non-scaling-stroke" cx="4" cy="24" r="0.4"></circle> <text vector-effect="non-scaling-stroke" x="4.5" y="23">(1,6)
				</text><circle vector-effect="non-scaling-stroke" cx="4" cy="28" r="0.4"></circle> <text vector-effect="non-scaling-stroke" x="4.5" y="27">(1,7)
				</text><circle vector-effect="non-scaling-stroke" cx="4" cy="32" r="0.8"></circle> <text vector-effect="non-scaling-stroke" x="4.5" y="31">(1,8)
				</text><circle vector-effect="non-scaling-stroke" cx="8" cy="0" r="0.8"></circle> <text vector-effect="non-scaling-stroke" x="8.5" y="-1">(2,0)
				</text><circle vector-effect="non-scaling-stroke" cx="8" cy="4" r="0.4"></circle> <text vector-effect="non-scaling-stroke" x="8.5" y="3">(2,1)
				</text><circle vector-effect="non-scaling-stroke" cx="8" cy="8" r="0.4"></circle> <text vector-effect="non-scaling-stroke" x="8.5" y="7">(2,2)
				</text><circle vector-effect="non-scaling-stroke" cx="8" cy="12" r="0.4"></circle> <text vector-effect="non-scaling-stroke" x="8.5" y="11">(2,3)
				</text><circle vector-effect="non-scaling-stroke" cx="8" cy="16" r="0.4"></circle> <text vector-effect="non-scaling-stroke" x="8.5" y="15">(2,4)
				</text><circle vector-effect="non-scaling-stroke" cx="8" cy="20" r="0.4"></circle> <text vector-effect="non-scaling-stroke" x="8.5" y="19">(2,5)
				</text><circle vector-effect="non-scaling-stroke" cx="8" cy="24" r="0.4"></circle> <text vector-effect="non-scaling-stroke" x="8.5" y="23">(2,6)
				</text><circle vector-effect="non-scaling-stroke" cx="8" cy="28" r="0.4"></circle> <text vector-effect="non-scaling-stroke" x="8.5" y="27">(2,7)
				</text><circle vector-effect="non-scaling-stroke" cx="8" cy="32" r="0.8"></circle> <text vector-effect="non-scaling-stroke" x="8.5" y="31">(2,8)
				</text><circle vector-effect="non-scaling-stroke" cx="12" cy="0" r="0.8"></circle> <text vector-effect="non-scaling-stroke" x="12.5" y="-1">(3,0)
				</text><circle vector-effect="non-scaling-stroke" cx="12" cy="4" r="0.4"></circle> <text vector-effect="non-scaling-stroke" x="12.5" y="3">(3,1)
				</text><circle vector-effect="non-scaling-stroke" cx="12" cy="8" r="0.4"></circle> <text vector-effect="non-scaling-stroke" x="12.5" y="7">(3,2)
				</text><circle vector-effect="non-scaling-stroke" cx="12" cy="12" r="0.4"></circle> <text vector-effect="non-scaling-stroke" x="12.5" y="11">(3,3)
				</text><circle vector-effect="non-scaling-stroke" cx="12" cy="16" r="0.4"></circle> <text vector-effect="non-scaling-stroke" x="12.5" y="15">(3,4)
				</text><circle vector-effect="non-scaling-stroke" cx="12" cy="20" r="0.4"></circle> <text vector-effect="non-scaling-stroke" x="12.5" y="19">(3,5)
				</text><circle vector-effect="non-scaling-stroke" cx="12" cy="24" r="0.4"></circle> <text vector-effect="non-scaling-stroke" x="12.5" y="23">(3,6)
				</text><circle vector-effect="non-scaling-stroke" cx="12" cy="28" r="0.4"></circle> <text vector-effect="non-scaling-stroke" x="12.5" y="27">(3,7)
				</text><circle vector-effect="non-scaling-stroke" cx="12" cy="32" r="0.8"></circle> <text vector-effect="non-scaling-stroke" x="12.5" y="31">(3,8)
				</text><circle vector-effect="non-scaling-stroke" cx="16" cy="0" r="0.8"></circle> <text vector-effect="non-scaling-stroke" x="16.5" y="-1">(4,0)
				</text><circle vector-effect="non-scaling-stroke" cx="16" cy="4" r="0.4"></circle> <text vector-effect="non-scaling-stroke" x="16.5" y="3">(4,1)
				</text><circle vector-effect="non-scaling-stroke" cx="16" cy="8" r="0.4"></circle> <text vector-effect="non-scaling-stroke" x="16.5" y="7">(4,2)
				</text><circle vector-effect="non-scaling-stroke" cx="16" cy="12" r="0.4"></circle> <text vector-effect="non-scaling-stroke" x="16.5" y="11">(4,3)
				</text><circle vector-effect="non-scaling-stroke" fill="DodgerBlue" cx="16" cy="16" r="0.8"></circle> <text vector-effect="non-scaling-stroke" x="16.5" y="15">(4,4)
				</text><circle vector-effect="non-scaling-stroke" cx="16" cy="20" r="0.4"></circle> <text vector-effect="non-scaling-stroke" x="16.5" y="19">(4,5)
				</text><circle vector-effect="non-scaling-stroke" cx="16" cy="24" r="0.4"></circle> <text vector-effect="non-scaling-stroke" x="16.5" y="23">(4,6)
				</text><circle vector-effect="non-scaling-stroke" cx="16" cy="28" r="0.4"></circle> <text vector-effect="non-scaling-stroke" x="16.5" y="27">(4,7)
				</text><circle vector-effect="non-scaling-stroke" cx="16" cy="32" r="0.8"></circle> <text vector-effect="non-scaling-stroke" x="16.5" y="31">(4,8)
				</text><circle vector-effect="non-scaling-stroke" cx="20" cy="0" r="0.8"></circle> <text vector-effect="non-scaling-stroke" x="20.5" y="-1">(5,0)
				</text><circle vector-effect="non-scaling-stroke" cx="20" cy="4" r="0.4"></circle> <text vector-effect="non-scaling-stroke" x="20.5" y="3">(5,1)
				</text><circle vector-effect="non-scaling-stroke" cx="20" cy="8" r="0.4"></circle> <text vector-effect="non-scaling-stroke" x="20.5" y="7">(5,2)
				</text><circle vector-effect="non-scaling-stroke" cx="20" cy="12" r="0.4"></circle> <text vector-effect="non-scaling-stroke" x="20.5" y="11">(5,3)
				</text><circle vector-effect="non-scaling-stroke" cx="20" cy="16" r="0.4"></circle> <text vector-effect="non-scaling-stroke" x="20.5" y="15">(5,4)
				</text><circle vector-effect="non-scaling-stroke" cx="20" cy="20" r="0.4"></circle> <text vector-effect="non-scaling-stroke" x="20.5" y="19">(5,5)
				</text><circle vector-effect="non-scaling-stroke" cx="20" cy="24" r="0.4"></circle> <text vector-effect="non-scaling-stroke" x="20.5" y="23">(5,6)
				</text><circle vector-effect="non-scaling-stroke" cx="20" cy="28" r="0.4"></circle> <text vector-effect="non-scaling-stroke" x="20.5" y="27">(5,7)
				</text><circle vector-effect="non-scaling-stroke" cx="20" cy="32" r="0.8"></circle> <text vector-effect="non-scaling-stroke" x="20.5" y="31">(5,8)
				</text><circle vector-effect="non-scaling-stroke" cx="24" cy="0" r="0.8"></circle> <text vector-effect="non-scaling-stroke" x="24.5" y="-1">(6,0)
				</text><circle vector-effect="non-scaling-stroke" cx="24" cy="4" r="0.4"></circle> <text vector-effect="non-scaling-stroke" x="24.5" y="3">(6,1)
				</text><circle vector-effect="non-scaling-stroke" cx="24" cy="8" r="0.4"></circle> <text vector-effect="non-scaling-stroke" x="24.5" y="7">(6,2)
				</text><circle vector-effect="non-scaling-stroke" cx="24" cy="12" r="0.4"></circle> <text vector-effect="non-scaling-stroke" x="24.5" y="11">(6,3)
				</text><circle vector-effect="non-scaling-stroke" cx="24" cy="16" r="0.4"></circle> <text vector-effect="non-scaling-stroke" x="24.5" y="15">(6,4)
				</text><circle vector-effect="non-scaling-stroke" cx="24" cy="20" r="0.4"></circle> <text vector-effect="non-scaling-stroke" x="24.5" y="19">(6,5)
				</text><circle vector-effect="non-scaling-stroke" cx="24" cy="24" r="0.4"></circle> <text vector-effect="non-scaling-stroke" x="24.5" y="23">(6,6)
				</text><circle vector-effect="non-scaling-stroke" cx="24" cy="28" r="0.4"></circle> <text vector-effect="non-scaling-stroke" x="24.5" y="27">(6,7)
				</text><circle vector-effect="non-scaling-stroke" cx="24" cy="32" r="0.8"></circle> <text vector-effect="non-scaling-stroke" x="24.5" y="31">(6,8)
				</text><circle vector-effect="non-scaling-stroke" cx="28" cy="0" r="0.8"></circle> <text vector-effect="non-scaling-stroke" x="28.5" y="-1">(7,0)
				</text><circle vector-effect="non-scaling-stroke" cx="28" cy="4" r="0.4"></circle> <text vector-effect="non-scaling-stroke" x="28.5" y="3">(7,1)
				</text><circle vector-effect="non-scaling-stroke" cx="28" cy="8" r="0.4"></circle> <text vector-effect="non-scaling-stroke" x="28.5" y="7">(7,2)
				</text><circle vector-effect="non-scaling-stroke" cx="28" cy="12" r="0.4"></circle> <text vector-effect="non-scaling-stroke" x="28.5" y="11">(7,3)
				</text><circle vector-effect="non-scaling-stroke" cx="28" cy="16" r="0.4"></circle> <text vector-effect="non-scaling-stroke" x="28.5" y="15">(7,4)
				</text><circle vector-effect="non-scaling-stroke" cx="28" cy="20" r="0.4"></circle> <text vector-effect="non-scaling-stroke" x="28.5" y="19">(7,5)
				</text><circle vector-effect="non-scaling-stroke" cx="28" cy="24" r="0.4"></circle> <text vector-effect="non-scaling-stroke" x="28.5" y="23">(7,6)
				</text><circle vector-effect="non-scaling-stroke" cx="28" cy="28" r="0.4"></circle> <text vector-effect="non-scaling-stroke" x="28.5" y="27">(7,7)
				</text><circle vector-effect="non-scaling-stroke" cx="28" cy="32" r="0.8"></circle> <text vector-effect="non-scaling-stroke" x="28.5" y="31">(7,8)
				</text><circle vector-effect="non-scaling-stroke" cx="32" cy="0" r="0.8"></circle> <text vector-effect="non-scaling-stroke" x="32.5" y="-1">(8,0)
				</text><circle vector-effect="non-scaling-stroke" cx="32" cy="4" r="0.8"></circle> <text vector-effect="non-scaling-stroke" x="32.5" y="3">(8,1)
				</text><circle vector-effect="non-scaling-stroke" cx="32" cy="8" r="0.8"></circle> <text vector-effect="non-scaling-stroke" x="32.5" y="7">(8,2)
				</text><circle vector-effect="non-scaling-stroke" cx="32" cy="12" r="0.8"></circle> <text vector-effect="non-scaling-stroke" x="32.5" y="11">(8,3)
				</text><circle vector-effect="non-scaling-stroke" cx="32" cy="16" r="0.8"></circle> <text vector-effect="non-scaling-stroke" x="32.5" y="15">(8,4)
				</text><circle vector-effect="non-scaling-stroke" cx="32" cy="20" r="0.8"></circle> <text vector-effect="non-scaling-stroke" x="32.5" y="19">(8,5)
				</text><circle vector-effect="non-scaling-stroke" cx="32" cy="24" r="0.8"></circle> <text vector-effect="non-scaling-stroke" x="32.5" y="23">(8,6)
				</text><circle vector-effect="non-scaling-stroke" cx="32" cy="28" r="0.8"></circle> <text vector-effect="non-scaling-stroke" x="32.5" y="27">(8,7)
				</text><circle vector-effect="non-scaling-stroke" cx="32" cy="32" r="0.8"></circle> <text vector-effect="non-scaling-stroke" x="32.5" y="31">(8,8)
				</text></g> <polygon vector-effect="non-scaling-stroke" stroke="DodgerBlue" points="0,0 0,32 32,32 32,0"></polygon></svg>
